<svg width="40" height="40" viewBox="0 0 40 40" fill="none" xmlns="http://www.w3.org/2000/svg">
<rect width="40" height="40" rx="8" fill="#9C85AD"/>
<g clip-path="url(#clip0)">
<path fill-rule="evenodd" clip-rule="evenodd" d="M31.7071 13.2929C32.0976 13.6834 32.0976 14.3166 31.7071 14.7071L22.2071 24.2071C21.8166 24.5976 21.1834 24.5976 20.7929 24.2071L16.5 19.9142L9.70711 26.7071C9.31658 27.0976 8.68342 27.0976 8.29289 26.7071C7.90237 26.3166 7.90237 25.6834 8.29289 25.2929L15.7929 17.7929C16.1834 17.4024 16.8166 17.4024 17.2071 17.7929L21.5 22.0858L30.2929 13.2929C30.6834 12.9024 31.3166 12.9024 31.7071 13.2929Z" fill="white"/>
<path fill-rule="evenodd" clip-rule="evenodd" d="M24 14C24 13.4477 24.4477 13 25 13H31C31.5523 13 32 13.4477 32 14V20C32 20.5523 31.5523 21 31 21C30.4477 21 30 20.5523 30 20V15H25C24.4477 15 24 14.5523 24 14Z" fill="white"/>
</g>
<defs>
<clipPath id="clip0">
<path d="M8 8H32V32H8V8Z" fill="white"/>
</clipPath>
</defs>
</svg>
