<svg width="32" height="32" viewBox="0 0 32 32" fill="none" xmlns="http://www.w3.org/2000/svg">
<path d="M0 8C0 3.58172 3.58172 0 8 0H24C28.4183 0 32 3.58172 32 8V24C32 28.4183 28.4183 32 24 32H8C3.58172 32 0 28.4183 0 24V8Z" fill="#EBEEF0"/>
<path fill-rule="evenodd" clip-rule="evenodd" d="M14.7418 15.9333C14.5938 14.9027 14.0824 13.3995 12.329 12.2968C12.2968 12.2765 12.2643 12.2553 12.2307 12.2332C11.9762 12.0669 11.6497 11.8534 10.7945 11.6398C9.53562 11.3255 8.72846 11.3419 7.50203 11.7366C6.29735 12.1242 5.6621 12.5103 4.69372 13.284L5.76018 15.4434C6.36297 15.1193 7.21737 14.6976 8.12329 14.4611C9.04583 14.2203 9.83797 14.2195 10.4417 14.5066C11.131 14.8344 11.4338 15.3489 11.5821 15.8246C11.6367 16 11.6682 16.1662 11.6859 16.3069C11.6013 16.3188 11.5147 16.3312 11.4262 16.3442C10.2441 16.5172 8.70448 16.7891 7.32555 17.1825C6.01874 17.5555 5.04972 18.1304 4.44136 18.8852C3.81849 19.6579 3.69017 20.377 3.77223 21.4388C3.84463 22.3755 4.01588 22.989 4.85947 23.8722C5.60782 24.6558 6.74149 25.0865 8.3614 24.9854C9.61804 24.907 10.8021 24.2207 11.7024 23.1408V24.6968L14.0265 24.6968C14.8012 24.6968 14.8012 24.6967 14.8012 24.6967L14.8013 18.1381L16.3808 17.9068V21.1891H19.4584V17.5038C20.82 17.3341 22.1808 17.0802 23.5067 16.7194C25.2993 16.2316 26.4315 15.4956 27.1383 14.6676C27.8457 13.839 28.1054 12.9434 28.1976 12.1767C28.3191 11.1669 28.2296 10.3591 27.925 9.66881C27.6206 8.97906 27.1146 8.43638 26.4568 7.93477C25.3224 7.06969 23.3619 6.65436 21.6628 6.9925C20.8376 7.15671 19.9996 7.60071 19.4049 8.11923V7.06797L16.3808 7.06798V15.6613C15.8365 15.7638 15.2898 15.8527 14.7418 15.9333ZM24.582 13.3261C24.7964 12.985 24.906 12.5894 24.9318 12.1259C24.9701 11.4406 24.8439 10.8876 24.5641 10.446C24.2844 10.0046 23.8334 9.64634 23.1709 9.38247C21.8667 8.86306 20.2667 9.38363 19.6854 10.927C19.4643 11.5142 19.4584 12.1654 19.4584 12.8629V15.2801C20.8407 15.0983 22.1499 14.8132 23.5501 14.231C24.0419 13.9676 24.3694 13.6643 24.582 13.3261ZM11.3996 20.632C11.3652 20.7215 11.3289 20.809 11.291 20.8947C11.1388 21.205 10.9611 21.4615 10.7686 21.6709C10.2462 22.2392 9.55174 22.5303 8.7586 22.5699C7.6489 22.6254 7.07356 21.9121 6.94231 21.2566C6.87783 20.9346 6.9103 20.5496 7.11975 20.1875C7.32535 19.8321 7.74193 19.4295 8.56903 19.1404C9.5398 18.8011 10.7153 18.5735 11.7024 18.4282C11.7024 19.1756 11.6678 19.9342 11.3996 20.632Z" fill="#1C1E1F"/>
</svg>
