<svg width="40" height="40" viewBox="0 0 40 40" fill="none" xmlns="http://www.w3.org/2000/svg">
<rect width="40" height="40" rx="8" fill="#858FAD"/>
<path fill-rule="evenodd" clip-rule="evenodd" d="M9.46447 23.4645C10.4021 22.5268 11.6739 22 13 22H21C22.3261 22 23.5979 22.5268 24.5355 23.4645C25.4732 24.4021 26 25.6739 26 27V29C26 29.5523 25.5523 30 25 30C24.4477 30 24 29.5523 24 29V27C24 26.2044 23.6839 25.4413 23.1213 24.8787C22.5587 24.3161 21.7956 24 21 24H13C12.2044 24 11.4413 24.3161 10.8787 24.8787C10.3161 25.4413 10 26.2044 10 27V29C10 29.5523 9.55228 30 9 30C8.44772 30 8 29.5523 8 29V27C8 25.6739 8.52678 24.4021 9.46447 23.4645Z" fill="white"/>
<path fill-rule="evenodd" clip-rule="evenodd" d="M17 12C15.3431 12 14 13.3431 14 15C14 16.6569 15.3431 18 17 18C18.6569 18 20 16.6569 20 15C20 13.3431 18.6569 12 17 12ZM12 15C12 12.2386 14.2386 10 17 10C19.7614 10 22 12.2386 22 15C22 17.7614 19.7614 20 17 20C14.2386 20 12 17.7614 12 15Z" fill="white"/>
<path fill-rule="evenodd" clip-rule="evenodd" d="M27.0318 22.88C27.1698 22.3453 27.7153 22.0237 28.25 22.1618C29.3227 22.4387 30.273 23.0641 30.9517 23.9397C31.6304 24.8152 31.9992 25.8914 32 26.9993L32 29C32 29.5523 31.5523 30 31 30C30.4477 30 30 29.5523 30 29L30 27.0007C30 27.0006 30 27.0008 30 27.0007C29.9994 26.3361 29.7782 25.6902 29.371 25.165C28.9638 24.6396 28.3936 24.2644 27.75 24.0982C27.2153 23.9602 26.8937 23.4148 27.0318 22.88Z" fill="white"/>
<path fill-rule="evenodd" clip-rule="evenodd" d="M23.0313 10.882C23.1682 10.3469 23.713 10.0243 24.248 10.1613C25.3236 10.4366 26.2768 11.0621 26.9576 11.9391C27.6383 12.8162 28.0078 13.8948 28.0078 15.005C28.0078 16.1152 27.6383 17.1939 26.9576 18.0709C26.2768 18.9479 25.3236 19.5734 24.248 19.8488C23.713 19.9857 23.1682 19.6631 23.0313 19.128C22.8943 18.593 23.2169 18.0482 23.752 17.9113C24.3973 17.746 24.9692 17.3707 25.3777 16.8445C25.7861 16.3183 26.0078 15.6711 26.0078 15.005C26.0078 14.3389 25.7861 13.6917 25.3777 13.1655C24.9692 12.6393 24.3973 12.264 23.752 12.0988C23.2169 11.9618 22.8943 11.417 23.0313 10.882Z" fill="white"/>
</svg>
