<svg width="40" height="40" viewBox="0 0 40 40" fill="none" xmlns="http://www.w3.org/2000/svg">
<rect width="40" height="40" rx="8" fill="#AD8585"/>
<g clip-path="url(#clip0)">
<path fill-rule="evenodd" clip-rule="evenodd" d="M20 10C16.6863 10 14 12.6863 14 16C14 19.3137 16.6863 22 20 22C23.3137 22 26 19.3137 26 16C26 12.6863 23.3137 10 20 10ZM12 16C12 11.5817 15.5817 8 20 8C24.4183 8 28 11.5817 28 16C28 20.4183 24.4183 24 20 24C15.5817 24 12 20.4183 12 16Z" fill="white"/>
<path fill-rule="evenodd" clip-rule="evenodd" d="M23.6585 20.8887C24.206 20.816 24.7087 21.201 24.7813 21.7485L25.9913 30.8685C26.0418 31.2491 25.8699 31.625 25.549 31.8358C25.228 32.0466 24.8148 32.055 24.4855 31.8575L20 29.1662L15.5145 31.8575C15.1852 32.0551 14.7719 32.0466 14.451 31.8358C14.13 31.625 13.9581 31.249 14.0087 30.8683L15.2187 21.7583C15.2914 21.2109 15.7942 20.826 16.3417 20.8987C16.8891 20.9714 17.274 21.4742 17.2013 22.0217L16.2644 29.0751L19.4855 27.1425C19.8022 26.9525 20.1978 26.9525 20.5145 27.1425L23.7359 29.0753L22.7987 22.0115C22.726 21.464 23.111 20.9613 23.6585 20.8887Z" fill="white"/>
</g>
<defs>
<clipPath id="clip0">
<path d="M8 8H32V32H8V8Z" fill="white"/>
</clipPath>
</defs>
</svg>
