<svg width="24" height="24" viewBox="0 0 24 24" fill="none" xmlns="http://www.w3.org/2000/svg">
<path fill-rule="evenodd" clip-rule="evenodd" d="M13.8282 8.83569C14.6065 8.35186 15.3693 8.35027 16.523 8.35027C20.2816 8.35027 22.4474 11.2647 22.4474 15.0503V21.9992C22.4474 22.4881 22.094 22.9053 21.6117 22.9857L21.607 22.9864C21.5527 22.9955 21.4977 23 21.4427 23H17.523C16.9707 23 16.523 22.5523 16.523 22V15.8491C16.523 14.9935 15.6524 14.4134 14.8628 14.7428C14.4164 14.929 14.1256 15.3653 14.1256 15.8491V21.9992C14.1256 22.5515 13.6779 22.9992 13.1256 22.9992H9.2019C8.64962 22.9992 8.2019 22.5515 8.2019 21.9992V9.34949C8.2019 8.7972 8.64962 8.34949 9.2019 8.34949H12.9701C13.3345 8.34949 13.6534 8.54442 13.8282 8.83569ZM12.1256 10.3495H10.2019V20.9992H12.1256V16.2105C12.1256 16.086 12.1256 15.9262 12.1256 15.7447C12.1256 14.1647 13.2758 12.8196 14.8367 12.5747L15.2237 12.514C16.9514 12.2429 18.523 13.5674 18.523 15.3163V21H20.4474V15.0503C20.4474 12.3643 19.2816 10.3503 16.523 10.3503C15.5357 10.3503 13.98 11.0438 13.0081 11.5315C12.6102 11.7312 12.1256 11.4451 12.1256 11V10.3495Z" fill="#AEB5B8"/>
<path fill-rule="evenodd" clip-rule="evenodd" d="M1.8125 9.35027C1.8125 8.79798 2.26022 8.35027 2.8125 8.35027H6.74092C7.29321 8.35027 7.74092 8.79798 7.74092 9.35027V22C7.74092 22.5523 7.29321 23 6.74092 23H2.8125C2.26022 23 1.8125 22.5523 1.8125 22V9.35027ZM3.8125 10.3503V21H5.74092V10.3503H3.8125Z" fill="#AEB5B8"/>
<path fill-rule="evenodd" clip-rule="evenodd" d="M1.5 4.27526C1.5 2.46693 2.96693 1 4.77526 1C6.58316 1 8.04939 2.46714 8.05053 4.27464C8.05053 6.07081 6.59568 7.57184 4.77526 7.57184C2.95484 7.57184 1.5 6.07144 1.5 4.27526ZM4.77526 3C4.0715 3 3.5 3.5715 3.5 4.27526C3.5 4.99119 4.08358 5.57184 4.77526 5.57184C5.46675 5.57184 6.05019 4.99153 6.05053 4.27589M4.77526 3C5.47785 3 6.05001 3.57135 6.05053 4.27589L4.77526 3Z" fill="#AEB5B8"/>
</svg>
