<svg width="36" height="36" viewBox="0 0 36 36" fill="none" xmlns="http://www.w3.org/2000/svg">
<path d="M18 3C9.717 3 3 9.717 3 18C3 26.283 9.717 33 18 33C26.283 33 33 26.283 33 18C33 9.717 26.283 3 18 3ZM13.6412 25.6758H9.98799V14.6851H13.6412V25.6758ZM11.8147 13.1843H11.7909C10.565 13.1843 9.77216 12.3404 9.77216 11.2858C9.77216 10.2073 10.5893 9.38672 11.839 9.38672C13.0887 9.38672 13.8577 10.2073 13.8815 11.2858C13.8815 12.3404 13.0887 13.1843 11.8147 13.1843ZM26.8138 25.6758H23.1611V19.796C23.1611 18.3184 22.6321 17.3106 21.3103 17.3106C20.3012 17.3106 19.7001 17.9904 19.436 18.6466C19.3394 18.8814 19.3158 19.2096 19.3158 19.5381V25.6758H15.6629C15.6629 25.6758 15.7107 15.7162 15.6629 14.6851H19.3158V16.2413C19.8013 15.4924 20.6699 14.4272 22.6081 14.4272C25.0116 14.4272 26.8138 15.998 26.8138 19.3738V25.6758Z" fill="#AEB5B8"/>
</svg>
