<svg width="40" height="40" viewBox="0 0 40 40" fill="none" xmlns="http://www.w3.org/2000/svg">
<path d="M20 3.33331C10.7966 3.33331 3.33331 10.7966 3.33331 20C3.33331 29.2033 10.7966 36.6666 20 36.6666C29.2033 36.6666 36.6666 29.2033 36.6666 20C36.6666 10.7966 29.2033 3.33331 20 3.33331ZM15.1568 28.5286H11.0977V16.3168H15.1568V28.5286ZM13.1274 14.6492H13.101C11.7389 14.6492 10.8579 13.7116 10.8579 12.5397C10.8579 11.3414 11.7658 10.4297 13.1544 10.4297C14.5429 10.4297 15.3974 11.3414 15.4239 12.5397C15.4239 13.7116 14.5429 14.6492 13.1274 14.6492ZM29.7931 28.5286H25.7345V21.9956C25.7345 20.3537 25.1468 19.234 23.6781 19.234C22.5568 19.234 21.889 19.9893 21.5955 20.7184C21.4882 20.9793 21.462 21.344 21.462 21.709V28.5286H17.4032C17.4032 28.5286 17.4563 17.4624 17.4032 16.3168H21.462V18.0458C22.0014 17.2137 22.9665 16.0302 25.1201 16.0302C27.7906 16.0302 29.7931 17.7755 29.7931 21.5264V28.5286Z" fill="#AEB5B8"/>
</svg>
