<svg width="36" height="36" viewBox="0 0 36 36" fill="none" xmlns="http://www.w3.org/2000/svg">
<path fill-rule="evenodd" clip-rule="evenodd" d="M18 33C26.2843 33 33 26.2843 33 18C33 9.71573 26.2843 3 18 3C9.71573 3 3 9.71573 3 18C3 26.2843 9.71573 33 18 33ZM9.41611 12.876C9.34405 12.8279 9.26671 12.794 9.18734 12.7735C9.44319 12.3122 9.93513 12 10.5 12H25.5C26.0649 12 26.5568 12.3123 26.8127 12.7736C26.7334 12.794 26.6561 12.8279 26.5841 12.876L18.0001 18.5986L9.41611 12.876ZM18.4161 20.124L27 14.4014V22.5C27 23.3284 26.3284 24 25.5 24H10.5C9.67157 24 9 23.3284 9 22.5V14.4013L17.5841 20.124C17.836 20.292 18.1642 20.292 18.4161 20.124Z" fill="#AEB5B8"/>
</svg>
