<svg width="36" height="36" viewBox="0 0 36 36" fill="none" xmlns="http://www.w3.org/2000/svg">
<path fill-rule="evenodd" clip-rule="evenodd" d="M18 3C9.7125 3 3 9.7125 3 18C3 24.6375 7.29375 30.2437 13.2563 32.2313C14.0063 32.3625 14.2875 31.9125 14.2875 31.5187C14.2875 31.1625 14.2688 29.9813 14.2688 28.725C10.5 29.4188 9.525 27.8062 9.225 26.9625C9.05625 26.5312 8.325 25.2 7.6875 24.8438C7.1625 24.5625 6.4125 23.8687 7.66875 23.85C8.85 23.8312 9.69375 24.9375 9.975 25.3875C11.325 27.6562 13.4813 27.0188 14.3438 26.625C14.475 25.65 14.8688 24.9937 15.3 24.6187C11.9625 24.2437 8.475 22.95 8.475 17.2125C8.475 15.5813 9.05625 14.2312 10.0125 13.1812C9.8625 12.8062 9.3375 11.2688 10.1625 9.20625C10.1625 9.20625 11.4188 8.8125 14.2875 10.7438C15.4875 10.4062 16.7625 10.2375 18.0375 10.2375C19.3125 10.2375 20.5875 10.4062 21.7875 10.7438C24.6563 8.79375 25.9125 9.20625 25.9125 9.20625C26.7375 11.2688 26.2125 12.8062 26.0625 13.1812C27.0188 14.2312 27.6 15.5625 27.6 17.2125C27.6 22.9688 24.0938 24.2437 20.7563 24.6187C21.3 25.0875 21.7688 25.9875 21.7688 27.3938C21.7688 29.4 21.75 31.0125 21.75 31.5187C21.75 31.9125 22.0313 32.3813 22.7813 32.2313C25.759 31.226 28.3466 29.3122 30.1797 26.7593C32.0128 24.2064 32.9992 21.1429 33 18C33 9.7125 26.2875 3 18 3Z" fill="#AEB5B8"/>
</svg>
