<svg width="40" height="40" viewBox="0 0 40 40" fill="none" xmlns="http://www.w3.org/2000/svg">
<path fill-rule="evenodd" clip-rule="evenodd" d="M20 36.6666C29.2047 36.6666 36.6666 29.2047 36.6666 20C36.6666 10.7952 29.2047 3.33331 20 3.33331C10.7952 3.33331 3.33331 10.7952 3.33331 20C3.33331 29.2047 10.7952 36.6666 20 36.6666ZM10.4623 14.3066C10.3823 14.2532 10.2963 14.2155 10.2081 14.1928C10.4924 13.6802 11.039 13.3333 11.6666 13.3333H28.3333C28.961 13.3333 29.5076 13.6803 29.7918 14.1928C29.7037 14.2156 29.6178 14.2533 29.5378 14.3066L20.0001 20.6651L10.4623 14.3066ZM20.4623 22.36L30 16.0016V25C30 25.9205 29.2538 26.6666 28.3333 26.6666H11.6666C10.7462 26.6666 9.99998 25.9205 9.99998 25V16.0015L19.5378 22.36C19.8177 22.5466 20.1824 22.5466 20.4623 22.36Z" fill="#AEB5B8"/>
</svg>
