<svg width="26" height="19" viewBox="0 0 26 19" fill="none" xmlns="http://www.w3.org/2000/svg">
<path fill-rule="evenodd" clip-rule="evenodd" d="M11.7418 9.93333C11.5938 8.90275 11.0824 7.39946 9.32901 6.29675C9.29678 6.27648 9.26435 6.25528 9.23065 6.23325C8.9762 6.06688 8.64966 5.85338 7.79452 5.63984C6.53562 5.32548 5.72846 5.34194 4.50203 5.73656C3.29735 6.12419 2.6621 6.5103 1.69372 7.28405L2.76018 9.44343C3.36297 9.11925 4.21737 8.6976 5.12329 8.46112C6.04583 8.22031 6.83797 8.21946 7.44168 8.50658C8.131 8.83441 8.43385 9.34888 8.58209 9.82458C8.63674 9.99998 8.66822 10.1662 8.68586 10.3069C8.60133 10.3188 8.51471 10.3312 8.42622 10.3442C7.24411 10.5172 5.70448 10.7891 4.32555 11.1825C3.01874 11.5555 2.04972 12.1304 1.44136 12.8852C0.818492 13.6579 0.690166 14.377 0.772232 15.4388C0.844626 16.3755 1.01588 16.989 1.85947 17.8722C2.60782 18.6558 3.74149 19.0865 5.3614 18.9854C6.61804 18.907 7.80209 18.2207 8.70241 17.1408V18.6968L11.0265 18.6968C11.8012 18.6968 11.8012 18.6967 11.8012 18.6967L11.8013 12.1381L13.3808 11.9068V15.1891H16.4584V11.5038C17.82 11.3341 19.1808 11.0802 20.5067 10.7194C22.2993 10.2316 23.4315 9.49557 24.1383 8.66765C24.8457 7.83898 25.1054 6.94343 25.1976 6.17665C25.3191 5.16686 25.2296 4.35911 24.925 3.66881C24.6206 2.97906 24.1146 2.43638 23.4568 1.93477C22.3224 1.06969 20.3619 0.654359 18.6628 0.9925C17.8376 1.15671 16.9996 1.60071 16.4049 2.11923V1.06797L13.3808 1.06798V9.66125C12.8365 9.76385 12.2898 9.85275 11.7418 9.93333ZM21.582 7.32613C21.7964 6.98502 21.906 6.58945 21.9318 6.12589C21.9701 5.44063 21.8439 4.88757 21.5641 4.44598C21.2844 4.00464 20.8334 3.64634 20.1709 3.38247C18.8667 2.86306 17.2667 3.38363 16.6854 4.92704C16.4643 5.51423 16.4584 6.16537 16.4584 6.86292V9.28006C17.8407 9.09834 19.1499 8.81317 20.5501 8.23096C21.0419 7.96764 21.3694 7.6643 21.582 7.32613ZM8.39956 14.632C8.36516 14.7215 8.32895 14.809 8.29103 14.8947C8.13877 15.205 7.96115 15.4615 7.76861 15.6709C7.24625 16.2392 6.55174 16.5303 5.7586 16.5699C4.6489 16.6254 4.07356 15.9121 3.94231 15.2566C3.87783 14.9346 3.9103 14.5496 4.11975 14.1875C4.32535 13.8321 4.74193 13.4295 5.56903 13.1404C6.5398 12.8011 7.71531 12.5735 8.70241 12.4282C8.70241 13.1756 8.66777 13.9342 8.39956 14.632Z" fill="#1C1E1F"/>
</svg>
