<svg width="40" height="40" viewBox="0 0 40 40" fill="none" xmlns="http://www.w3.org/2000/svg">
<rect width="40" height="40" rx="8" fill="#ABAD85"/>
<path fill-rule="evenodd" clip-rule="evenodd" d="M13 12C12.4477 12 12 12.4477 12 13V27C12 27.5523 12.4477 28 13 28H27C27.5523 28 28 27.5523 28 27V13C28 12.4477 27.5523 12 27 12H13ZM10 13C10 11.3431 11.3431 10 13 10H27C28.6569 10 30 11.3431 30 13V27C30 28.6569 28.6569 30 27 30H13C11.3431 30 10 28.6569 10 27V13Z" fill="white"/>
<path fill-rule="evenodd" clip-rule="evenodd" d="M16.5 16C16.2239 16 16 16.2239 16 16.5C16 16.7761 16.2239 17 16.5 17C16.7761 17 17 16.7761 17 16.5C17 16.2239 16.7761 16 16.5 16ZM14 16.5C14 15.1193 15.1193 14 16.5 14C17.8807 14 19 15.1193 19 16.5C19 17.8807 17.8807 19 16.5 19C15.1193 19 14 17.8807 14 16.5Z" fill="white"/>
<path fill-rule="evenodd" clip-rule="evenodd" d="M23.2929 17.2929C23.6834 16.9024 24.3166 16.9024 24.7071 17.2929L29.7071 22.2929C30.0976 22.6834 30.0976 23.3166 29.7071 23.7071C29.3166 24.0976 28.6834 24.0976 28.2929 23.7071L24 19.4142L13.7071 29.7071C13.3166 30.0976 12.6834 30.0976 12.2929 29.7071C11.9024 29.3166 11.9024 28.6834 12.2929 28.2929L23.2929 17.2929Z" fill="white"/>
</svg>
