<svg width="40" height="40" viewBox="0 0 40 40" fill="none" xmlns="http://www.w3.org/2000/svg">
<rect width="40" height="40" rx="8" fill="#8599AD"/>
<path fill-rule="evenodd" clip-rule="evenodd" d="M22 11C22 10.4477 22.4477 10 23 10H27C27.7956 10 28.5587 10.3161 29.1213 10.8787C29.6839 11.4413 30 12.2043 30 13V27C30 27.7957 29.6839 28.5587 29.1213 29.1213C28.5587 29.6839 27.7957 30 27 30H23C22.4477 30 22 29.5523 22 29C22 28.4477 22.4477 28 23 28H27C27.2652 28 27.5196 27.8946 27.7071 27.7071C27.8946 27.5196 28 27.2652 28 27V13C28 12.7348 27.8946 12.4804 27.7071 12.2929C27.5196 12.1054 27.2652 12 27 12H23C22.4477 12 22 11.5523 22 11Z" fill="white"/>
<path fill-rule="evenodd" clip-rule="evenodd" d="M17.2929 14.2929C17.6834 13.9024 18.3166 13.9024 18.7071 14.2929L23.7071 19.2929C24.0976 19.6834 24.0976 20.3166 23.7071 20.7071L18.7071 25.7071C18.3166 26.0976 17.6834 26.0976 17.2929 25.7071C16.9024 25.3166 16.9024 24.6834 17.2929 24.2929L21.5858 20L17.2929 15.7071C16.9024 15.3166 16.9024 14.6834 17.2929 14.2929Z" fill="white"/>
<path fill-rule="evenodd" clip-rule="evenodd" d="M10 20C10 19.4477 10.4477 19 11 19H23C23.5523 19 24 19.4477 24 20C24 20.5523 23.5523 21 23 21H11C10.4477 21 10 20.5523 10 20Z" fill="white"/>
</svg>
