<svg width="40" height="40" viewBox="0 0 40 40" fill="none" xmlns="http://www.w3.org/2000/svg">
<rect width="40" height="40" rx="8" fill="#85AD8B"/>
<path fill-rule="evenodd" clip-rule="evenodd" d="M19.9996 9.68994C20.2649 9.68982 20.5195 9.79519 20.7071 9.98283L26.3669 15.6426C26.367 15.6427 26.3668 15.6425 26.3669 15.6426C27.626 16.901 28.4839 18.5048 28.8316 20.2507C29.1794 21.9967 29.0015 23.8066 28.3205 25.4514C27.6395 27.0963 26.4859 28.5023 25.0057 29.4915C23.5256 30.4807 21.7853 31.0086 20.005 31.0086C18.2247 31.0086 16.4844 30.4807 15.0043 29.4915C13.5241 28.5023 12.3705 27.0963 11.6895 25.4514C11.0085 23.8066 10.8306 21.9967 11.1784 20.2507C11.5261 18.505 12.3836 16.9015 13.6425 15.6432C13.6427 15.643 13.6423 15.6434 13.6425 15.6432L19.2923 9.98346C19.4797 9.79565 19.7342 9.69006 19.9996 9.68994ZM20.0006 12.1048L15.0569 17.0573C14.0774 18.0361 13.4103 19.2833 13.1398 20.6413C12.8694 21.9993 13.0077 23.407 13.5374 24.6864C14.0671 25.9657 14.9643 27.0592 16.1155 27.8286C17.2668 28.598 18.6203 29.0086 20.005 29.0086C21.3897 29.0086 22.7432 28.598 23.8945 27.8286C25.0457 27.0592 25.9429 25.9657 26.4726 24.6864C27.0023 23.407 27.1406 21.9993 26.8702 20.6413C26.5997 19.2833 25.9326 18.0361 24.9531 17.0573L20.0006 12.1048Z" fill="white"/>
</svg>
